<svg width="15" height="7" viewBox="0 0 15 7" fill="none" xmlns="http://www.w3.org/2000/svg">
<path d="M14.3659 1.17554C14.0394 1.58176 13.6938 1.94939 13.3329 2.27956M0.833882 1.17554C1.12668 1.57665 1.45143 1.94521 1.80273 2.27956M14.5632 3.50988L13.3329 2.27956M13.3329 2.27956C12.795 2.77167 12.2228 3.18054 11.6288 3.50988M12.5221 5.02274L11.6288 3.50988M11.6288 3.50988C10.9813 3.86882 10.3078 4.13328 9.62401 4.30805M10.1207 5.98329L9.62401 4.30805M9.62401 4.30805C8.95397 4.47931 8.27409 4.56445 7.59925 4.56797M7.59925 6.36751V4.56797M7.59925 4.56797C6.88208 4.57171 6.1706 4.48327 5.48269 4.30805M5.0538 5.98329L5.48269 4.30805M5.48269 4.30805C4.78307 4.12985 4.10782 3.8619 3.47574 3.50988M2.67644 5.02274L3.47574 3.50988M3.47574 3.50988C2.87346 3.17446 2.31037 2.76271 1.80273 2.27956M0.563232 3.50988L1.80273 2.27956" stroke="white"/>
</svg>
