<svg width="21" height="15" viewBox="0 0 21 15" fill="none" xmlns="http://www.w3.org/2000/svg">
<path d="M10.5632 4.33142C9.7692 4.33666 9.00918 4.65442 8.4477 5.21589C7.88623 5.77737 7.56847 6.53739 7.56323 7.33142C7.56323 8.97342 8.92123 10.3314 10.5632 10.3314C12.2042 10.3314 13.5632 8.97342 13.5632 7.33142C13.5632 5.69042 12.2042 4.33142 10.5632 4.33142Z" fill="white"/>
<path d="M10.5633 0.331421C2.93028 0.331421 0.636277 6.94842 0.615277 7.01542L0.509277 7.33142L0.614277 7.64742C0.636277 7.71442 2.93028 14.3314 10.5633 14.3314C18.1963 14.3314 20.4903 7.71442 20.5113 7.64742L20.6173 7.33142L20.5123 7.01542C20.4903 6.94842 18.1963 0.331421 10.5633 0.331421ZM10.5633 12.3314C5.21228 12.3314 3.13928 8.48542 2.63728 7.33142C3.14128 6.17342 5.21528 2.33142 10.5633 2.33142C15.9143 2.33142 17.9873 6.17742 18.4893 7.33142C17.9853 8.48942 15.9113 12.3314 10.5633 12.3314Z" fill="white"/>
</svg>
